<svg xmlns="http://www.w3.org/2000/svg" xmlns:xlink="http://www.w3.org/1999/xlink" width="23" height="22"><clipPath id="b"><path d="M22.93 5.74l-3.89 9.41a.85.85 0 0 1-.78.54H7.59c-.39 0-.73-.27-.83-.65L3.29 1.79H.85C.38 1.79 0 1.39 0 .9 0 .4.38 0 .85 0h3.08c.38 0 .72.27.82.66L8.22 13.9h9.48l3.14-7.62H10.35c-.47 0-.85-.41-.85-.9 0-.49.38-.9.85-.9h11.8c.28 0 .55.15.71.41.15.25.18.56.07.85zM6.78 17.93c1.06 0 1.93.92 1.93 2.04S7.84 22 6.78 22c-1.07 0-1.93-.91-1.93-2.03 0-1.12.86-2.04 1.93-2.04zm11.92 0c1.07-.07 1.99.78 2.06 1.89.03.55-.13 1.07-.47 1.48-.34.42-.81.66-1.32.7h-.14c-1.01 0-1.84-.84-1.91-1.9-.08-1.1.72-2.09 1.78-2.17z"/></clipPath><defs><symbol id="a"><path d="M22.93 5.74l-3.89 9.41a.85.85 0 0 1-.78.54H7.59c-.39 0-.73-.27-.83-.65L3.29 1.79H.85C.38 1.79 0 1.39 0 .9 0 .4.38 0 .85 0h3.08c.38 0 .72.27.82.66L8.22 13.9h9.48l3.14-7.62H10.35c-.47 0-.85-.41-.85-.9 0-.49.38-.9.85-.9h11.8c.28 0 .55.15.71.41.15.25.18.56.07.85zM6.78 17.93c1.06 0 1.93.92 1.93 2.04S7.84 22 6.78 22c-1.07 0-1.93-.91-1.93-2.03 0-1.12.86-2.04 1.93-2.04zm11.92 0c1.07-.07 1.99.78 2.06 1.89.03.55-.13 1.07-.47 1.48-.34.42-.81.66-1.32.7h-.14c-1.01 0-1.84-.84-1.91-1.9-.08-1.1.72-2.09 1.78-2.17z"/></symbol></defs><use xlink:href="#a" width="23" height="22" fill="#FFF"/><use xlink:href="#a" width="23" height="22" fill="none" stroke="#FFF" stroke-width="4" clip-path="url(#b)"/></svg>