<svg xmlns="http://www.w3.org/2000/svg" width="45" height="32"><path d="M44.07 27.3h-2.81c-.45 2.66-2.74 4.7-5.5 4.7s-5.05-2.04-5.49-4.7H14.78c-.44 2.66-2.73 4.7-5.49 4.7-2.76 0-5.05-2.04-5.5-4.7H1.86C.83 27.3 0 26.45 0 25.42V1.88C0 .84.83 0 1.86 0h25.56c1.02 0 1.85.84 1.85 1.88v1.91h7.12c.09 0 .17.01.24.03 2.31.2 3.46 1.41 4.68 3.47l3.56 6.11c.09.14.13.31.13.47v12.49c0 .52-.42.94-.93.94zM9.29 30.12c2.05 0 3.72-1.69 3.72-3.76 0-2.08-1.67-3.77-3.72-3.77-2.05 0-3.72 1.69-3.72 3.77 0 2.07 1.67 3.76 3.72 3.76zM27.42 1.88H1.86v23.54h1.93c.45-2.67 2.74-4.71 5.5-4.71s5.05 2.04 5.49 4.71h12.64V1.88zm8.34 28.24c2.05 0 3.72-1.69 3.72-3.76 0-2.08-1.67-3.77-3.72-3.77-2.05 0-3.72 1.69-3.72 3.77 0 2.07 1.67 3.76 3.72 3.76zm4.06-21.69h-6.9v3.77c0 .53.42.96.95.96.06 0 .12 0 .19.02h8.53l-2.77-4.75zm3.32 7.63h-.88c-.51 0-.93.42-.93.94v.91h1.81v-1.85zm0 3.73h-2.73a.93.93 0 0 1-.93-.94V17c0-.75.29-1.44.77-1.94h-6.38c-.08 0-.16-.01-.23-.03-1.44-.12-2.58-1.35-2.58-2.83V7.49c0-.52.42-.94.93-.94h6.49c-.66-.63-1.4-.88-2.58-.88h-6.63v19.75h1c.44-2.67 2.73-4.71 5.49-4.71 2.76 0 5.05 2.04 5.5 4.71h1.88v-5.63zm-7.38 3.78c.51 0 .93.42.93.94s-.42.94-.93.94c-.49 0-.89.41-.89.91s.4.9.89.9.89-.4.89-.9c0-.52.42-.94.93-.94s.93.42.93.94c0 1.53-1.23 2.78-2.75 2.78s-2.75-1.25-2.75-2.78c0-1.54 1.23-2.79 2.75-2.79zM3.75 4.73c0-.52.42-.94.93-.94h19.91c.51 0 .93.42.93.94s-.42.94-.93.94H4.68c-.51 0-.93-.42-.93-.94zm5.54 18.84c.51 0 .93.42.93.94s-.42.94-.93.94c-.49 0-.89.41-.89.91s.4.9.89.9.89-.4.89-.9c0-.52.42-.94.93-.94s.93.42.93.94c0 1.53-1.23 2.78-2.75 2.78s-2.75-1.25-2.75-2.78c0-1.54 1.23-2.79 2.75-2.79z" fill="#F16D7F"/></svg>