<svg xmlns="http://www.w3.org/2000/svg" width="40" height="40"><path d="M36.58 17.03L40 20l-3.42 2.97 2.21 3.98-4.21 1.6.74 4.5-4.5.05-.82 4.49-4.24-1.52L23.47 40 20 37.1 16.53 40l-2.29-3.93L10 37.59l-.82-4.49-4.5-.05.73-4.5-4.21-1.6 2.22-3.98L0 20l3.42-2.97-2.22-3.98 4.22-1.6-.74-4.5 4.5-.05.82-4.49 4.24 1.52L16.53 0 20 2.9 23.47 0l2.29 3.93L30 2.41l.82 4.49 4.5.05-.73 4.5 4.2 1.6-2.21 3.98zm-2.66-3.78l-1.46-.55.26-1.57.37-2.28-2.29-.03-1.56-.01-.28-1.56-.42-2.28-2.15.77-1.47.53-.79-1.36-1.16-2-1.77 1.47L20 5.39l-1.21-1.01-1.76-1.47-1.16 1.99-.79 1.36-1.47-.52-2.15-.77-.42 2.28-.28 1.56-1.56.01-2.29.03.38 2.28.25 1.56-1.46.56-2.13.81 1.12 2.02.76 1.38-1.18 1.03L2.92 20l1.73 1.51 1.18 1.03-.76 1.38-1.13 2.01 2.14.81 1.46.56-.26 1.56-.37 2.29 2.28.02 1.56.02.29 1.56.42 2.27 2.15-.76 1.47-.53.79 1.36 1.16 2 1.76-1.48L20 34.6l1.21 1.01 1.76 1.48 1.16-2 .79-1.36 1.47.53 2.15.77.42-2.28.28-1.56 1.56-.02 2.28-.02-.37-2.28-.25-1.57 1.46-.55 2.13-.82-1.12-2.01-.76-1.38 1.18-1.03L37.08 20l-1.73-1.51-1.18-1.03.76-1.38 1.12-2.02-2.13-.81zm-9.25 14.18c-1.78 0-3.33-1.46-3.35-4.37 0-2.93 1.57-4.56 3.46-4.56 2.01 0 3.31 1.57 3.31 4.34 0 3.07-1.59 4.59-3.42 4.59zm.05-7.74c-1.21 0-1.88 1.45-1.88 3.29-.02 1.85.69 3.26 1.88 3.26 1.27 0 1.85-1.39 1.85-3.31 0-1.77-.51-3.24-1.85-3.24zm-9.52 7.7l8.41-14.75h1.24l-8.42 14.75H15.2zm.13-5.98c-1.78 0-3.32-1.46-3.35-4.39 0-2.9 1.57-4.54 3.46-4.54 2.01 0 3.33 1.57 3.33 4.34 0 3.07-1.59 4.59-3.44 4.59zm.05-7.74c-1.21 0-1.85 1.45-1.85 3.29-.05 1.85.64 3.26 1.85 3.26 1.27 0 1.85-1.38 1.85-3.31 0-1.77-.51-3.24-1.85-3.24z" fill="#F16D7F"/></svg>