<svg xmlns="http://www.w3.org/2000/svg" width="47" height="35"><path d="M42.37 8.55c-2.56 0-4.64 2.04-4.64 4.54 0 1.34.6 2.54 1.56 3.37l-5.87 2.06-8.34-9.7c1.8-.63 3.1-2.29 3.1-4.26 0-2.51-2.08-4.55-4.65-4.55-2.56 0-4.64 2.04-4.64 4.55 0 1.95 1.27 3.6 3.04 4.25l-8.35 9.71-5.86-2.06c.95-.83 1.56-2.03 1.56-3.37 0-2.5-2.09-4.54-4.65-4.54-2.56 0-4.65 2.04-4.65 4.54 0 2.13 1.52 3.92 3.55 4.4v12.32c0 .08.03.16.05.24a1.6 1.6 0 0 0-.05.39c0 4.42 17.93 4.55 19.97 4.55 2.04 0 19.97-.13 19.97-4.55 0-.14-.02-.27-.05-.39.02-.08.05-.16.05-.24V17.49c2.03-.48 3.55-2.27 3.55-4.4 0-2.5-2.09-4.54-4.65-4.54zM21.15 4.56c0-1.29 1.07-2.34 2.39-2.34 1.31 0 2.38 1.05 2.38 2.34 0 1.28-1.07 2.33-2.38 2.33-1.32 0-2.39-1.05-2.39-2.33zm-7.59 16.31c.44.15.94.02 1.24-.34l8.7-10.11 8.7 10.11c.3.36.8.49 1.25.34l7.76-2.73v9.95c-4.89-2.12-16.12-2.2-17.71-2.2-1.59 0-12.82.08-17.71 2.2v-9.96l7.77 2.74zm9.94 11.91c-8.7 0-14.25-1.01-16.56-1.87-.45-.16-.79-.33-1-.47.73-.52 3.07-1.24 6.97-1.74 2.76-.35 6.28-.6 10.59-.6s7.84.25 10.59.6c3.91.5 6.25 1.22 6.97 1.74-.2.15-.54.31-.99.47-2.31.86-7.86 1.87-16.57 1.87zM2.25 13.09c0-1.28 1.07-2.33 2.39-2.33 1.31 0 2.38 1.05 2.38 2.33 0 1.29-1.07 2.34-2.38 2.34-1.32 0-2.39-1.05-2.39-2.34zm40.12 2.34c-1.31 0-2.38-1.05-2.38-2.34 0-1.28 1.07-2.33 2.38-2.33 1.32 0 2.39 1.05 2.39 2.33 0 1.29-1.07 2.34-2.39 2.34z" fill="#F16D7F"/></svg>